<svg width="272" height="85" viewBox="0 0 272 85" fill="currentColor" xmlns="http://www.w3.org/2000/svg">
<path d="M36.8796 0.25943C24.1625 1.83635 10.835 11.1453 4.93424 22.5398C2.18734 27.881 0 36.1217 0 41.1068C0 47.7705 1.72953 55.1973 4.62903 60.8946C9.86848 71.3735 18.3126 78.8512 29.402 82.8698C33.7258 84.4467 34.031 84.4976 42.7295 84.4976C51.428 84.4976 51.7332 84.4467 56.0062 82.9206C64.2977 79.9194 70.7071 75.2904 75.5905 68.8809C77.6761 66.1341 80.2195 61.3524 79.6091 61.3524C79.4565 61.3524 78.6426 62.675 77.727 64.2519C76.8113 65.9306 74.1153 69.1862 71.521 71.7804C67.4007 75.7991 66.1798 76.7147 61.0421 79.2581C57.8374 80.835 54.2766 82.3611 53.1575 82.6154C50.5124 83.3276 40.6948 83.3785 40.6948 82.7172C40.6948 82.412 42.1191 82.1576 43.8995 82.1576C46.2903 82.1067 45.4255 81.9541 40.3895 81.4455C34.9466 80.8859 33.0136 80.479 30.1141 79.2072C28.1302 78.3425 26.299 77.6303 26.0446 77.6303C25.3325 77.6303 18.8722 72.747 16.0744 70.0509C10.6824 64.9132 7.68113 59.7246 5.74813 52.247C2.23821 38.716 5.84987 25.3884 15.9727 14.6552C20.9578 9.36488 29.9615 4.88846 37.6426 3.87109C41.6104 3.31153 43.4416 2.85371 41.6613 2.85371C41.1017 2.85371 41.1017 2.75198 41.6104 2.44677C42.0173 2.19243 41.356 1.98895 39.9317 1.98895C38.66 1.98895 37.6426 2.14156 37.6426 2.34503C37.6426 2.54851 36.5235 2.85371 35.0992 3.00632C29.9615 3.61674 22.433 7.33014 16.6848 12.1118C13.938 14.4009 13.3784 14.0448 15.9218 11.654C22.026 5.85496 29.8598 2.09069 37.5409 1.17506C42.4243 0.615509 53.9205 1.32767 55.1414 2.29417C55.4466 2.49763 56.8709 3.10806 58.2444 3.61674C63.8399 5.70235 67.0955 7.88969 73.1997 13.6887C76.0483 16.4356 76.3027 16.5373 74.8275 14.6552C71.0123 9.77183 62.3647 3.97282 55.2431 1.58201C51.1737 0.25943 42.2208 -0.401863 36.8796 0.25943ZM12.4119 16.1813C11.8523 16.8425 10.7332 18.3177 9.97021 19.5386C9.15632 20.7085 8.39329 21.5733 8.24069 21.4207C7.78287 20.9629 12.1067 15.0621 12.9206 15.0621C13.1749 15.0621 12.9715 15.5708 12.4119 16.1813Z" fill="currentColor"/>  
<!-- red color = currentColor -->
<path d="M42.9328 2.39591C42.7802 2.70112 42.9837 2.90459 43.5433 2.85372C46.0867 2.54851 49.9018 2.90459 49.5966 3.36241C49.3931 3.66762 50.0036 3.87109 51.0718 3.87109C54.073 3.87109 53.5643 3.0572 50.1562 2.44678C46.1376 1.68375 43.3907 1.68375 42.9328 2.39591Z" fill="currentColor"/>
<path d="M54.1746 3.87109C54.022 4.12544 54.0729 4.37978 54.3781 4.37978C54.6325 4.37978 55.3955 4.58325 56.0568 4.83759C56.7181 5.09194 57.3794 5.29541 57.5828 5.39715C57.7863 5.44802 59.465 6.21104 61.2962 7.17754C63.1275 8.09317 64.5518 8.60186 64.4501 8.24578C64.2975 7.68623 57.7863 4.32891 55.599 3.66762C54.9885 3.46415 54.3781 3.56588 54.1746 3.87109Z" fill="currentColor"/>
<path d="M65.6201 9.31401C65.6201 9.56835 66.0779 10.0262 66.6375 10.3822C67.197 10.7383 67.6549 10.7892 67.6549 10.484C67.6549 10.2296 67.197 9.77182 66.6375 9.46661C66.0779 9.1614 65.6201 9.11053 65.6201 9.31401Z" fill="currentColor"/>
<path d="M68.6724 11.9592C68.6724 12.2135 69.0284 12.5696 69.4863 12.7222C70.1984 12.9765 70.2493 12.9257 69.6897 12.2644C68.9776 11.3996 68.6724 11.2979 68.6724 11.9592Z" fill="currentColor"/>
<path d="M48.8338 81.1911C47.1042 81.5472 47.1042 81.5472 48.5794 81.598C49.4442 81.598 50.665 81.3945 51.3772 81.1911C53.0558 80.6315 51.3772 80.6315 48.8338 81.1911Z" fill="currentColor"/>
<path d="M54.1747 81.1911C53.5134 81.4963 53.4117 81.6489 53.9203 81.6489C54.3273 81.6489 55.0394 81.4455 55.4464 81.1911C56.362 80.5807 55.5481 80.5807 54.1747 81.1911Z" fill="currentColor"/>
<!-- upto here is red -->
<path d="M70.9657 23.784L63.5897 23.9366L61.6567 26.9887C59.5203 30.4478 59.4185 31.0073 60.6902 31.0582C61.148 31.1091 61.9111 31.16 62.318 31.2108C62.725 31.2108 63.081 31.6686 63.0302 32.1265C63.0302 32.6351 62.9793 34.3647 62.9284 36.0433C62.8267 38.485 62.5724 39.3498 61.3006 40.9267C59.4185 43.2666 59.4185 43.6227 61.0972 44.0297C62.3689 44.3857 62.3689 44.3857 62.0128 48.15C61.8093 50.7443 61.3006 52.6773 60.4359 54.2034C59.3168 56.2381 59.2659 56.4924 60.0289 56.7976C60.5376 56.9502 64.9632 57.1029 69.8465 57.1537L78.7994 57.2046L80.478 54.6612C81.3937 53.2877 82.1567 51.8634 82.1567 51.5073C82.1567 50.9986 80.6815 50.846 76.4594 50.846H70.7113L70.9657 47.4378L71.22 43.9788L73.916 43.8262L76.612 43.6736L78.0872 40.5706C78.9011 38.8411 79.4607 37.2642 79.2572 36.959C79.1046 36.7046 77.4768 36.6537 75.4421 36.8572L71.8304 37.2133L72.2374 34.2629C72.4408 32.5843 72.6443 31.2108 72.6952 31.16C72.746 31.1091 74.8825 30.9056 77.4768 30.7021L82.1567 30.3461L83.1741 28.057C83.7845 26.7853 84.344 25.2083 84.4967 24.5471C84.8019 23.4279 84.7001 23.3771 81.5972 23.4788C79.8168 23.5297 75.0351 23.6823 70.9657 23.784Z" fill="currentColor"/>
<path d="M113.034 23.9874C112.016 24.2927 110.948 24.8522 110.694 25.3609C110.439 25.8187 109.168 31.2108 107.896 37.3658C106.573 43.5209 105.098 50.1338 104.539 52.1177C103.674 55.3224 103.623 55.7294 104.335 56.2889C105.607 57.2554 110.185 58.171 110.592 57.5606C110.745 57.2554 111.711 53.5929 112.678 49.3708C113.644 45.1487 114.611 41.6897 114.763 41.6897C114.916 41.6897 115.832 44.4366 116.747 47.743C117.663 51.1003 118.578 54.1016 118.782 54.4068C119.698 55.882 121.274 54.0507 125.14 46.7765C127.379 42.6053 129.363 39.1462 129.515 39.1462C129.871 39.1462 130.126 40.9266 131.296 50.5916C131.702 54.2033 132.262 57.408 132.516 57.6624C133.178 58.3236 139.638 56.4924 139.994 55.5767C140.35 54.6102 138.163 36.2976 136.281 25.0048C135.975 23.0718 135.314 22.9701 130.838 24.2418L127.786 25.1066L124.632 31.7194L121.427 38.3832L120.359 34.5681C116.951 22.8175 117.001 22.9192 113.034 23.9874Z" fill="currentColor"/>
<path d="M150.321 24.3435L147.014 25.2083L146.607 28.9726C145.437 40.5706 144.471 57.6115 145.03 57.815C145.692 58.0693 151.592 56.645 152.915 55.882C153.576 55.5767 153.881 54.4068 154.085 51.2529C155.255 36.6537 155.967 28.3621 156.171 26.0222C156.425 23.377 156.425 23.377 155.051 23.4279C154.238 23.4279 152.152 23.8857 150.321 24.3435Z" fill="currentColor"/>
<path d="M216.454 24.9273L213.147 25.792L212.74 29.5563C211.57 41.1543 210.604 58.1952 211.163 58.3987C211.824 58.653 217.725 57.2287 219.048 56.4657C219.709 56.1605 220.014 54.9905 220.218 51.8367C221.388 37.2374 222.1 28.9459 222.303 26.6059C222.558 23.9608 222.558 23.9608 221.184 24.0116C220.37 24.0116 218.285 24.4695 216.454 24.9273Z" fill="currentColor"/>
<path d="M167.514 24.191C162.173 25.8187 159.426 30.3969 160.494 35.9416C161.054 39.1463 161.919 40.3162 166.904 44.284C170.668 47.2852 171.177 48.2009 169.549 49.4726C168.023 50.7443 164.258 50.4391 162.071 48.8113C161.155 48.2009 160.342 47.743 160.291 47.8448C160.189 47.9465 160.24 49.9304 160.392 52.2195L160.647 56.4415L162.529 57.0011C163.546 57.3063 166.344 57.5098 168.735 57.408C172.703 57.2046 173.313 57.052 175.602 55.475C178.756 53.3386 180.384 50.9986 180.689 48.0991C181.198 43.6227 179.265 40.7232 172.906 36.552C170.159 34.7716 169.651 34.212 169.651 32.9912C169.651 29.6847 173.771 29.1761 177.739 32.0247C178.858 32.8895 179.926 33.5507 180.079 33.5507C180.435 33.5507 180.384 30.8039 180.028 27.5991C179.722 25.1066 179.57 24.9031 177.688 24.191C175.297 23.1736 170.719 23.2245 167.514 24.191Z" fill="currentColor"/>
<path d="M193.101 23.9366C189.387 24.1401 186.183 24.4961 185.979 24.7505C185.42 25.3609 183.385 30.5495 183.385 31.3125C183.385 31.8721 184.3 32.0247 187.149 32.0247C189.235 32.0247 191.066 32.1773 191.168 32.3808C191.269 32.6351 190.913 38.3324 190.354 45.1487C189.794 51.9142 189.489 57.6115 189.692 57.815C189.998 58.171 196.254 56.2889 197.628 55.4242C198.187 55.0681 199.714 43.114 200.273 34.5681L200.426 32.279L203.834 32.1264C205.665 32.0247 207.446 31.7195 207.7 31.3634C208.158 30.8547 210.854 24.1401 210.854 23.5805C210.854 23.2753 200.884 23.4788 193.101 23.9366Z" fill="currentColor"/>
<path d="M233.478 23.9875C230.019 24.547 229.866 24.5979 227.628 28.6165L226 31.5669L228.594 31.2108C230.222 31.0073 231.189 31.0582 231.189 31.3634C231.189 32.9403 229.612 53.4912 229.357 55.2207C229.154 56.5433 229.256 57.4589 229.612 57.7132C229.917 57.8659 232.002 57.4589 234.19 56.6959L238.208 55.3733L238.565 50.9477C238.717 48.5061 239.073 45.6066 239.277 44.4875L239.633 42.4527L242.329 48.0482C243.855 51.1004 245.483 54.6103 245.991 55.7802C246.5 57.0011 247.212 57.9676 247.568 57.9676C248.535 57.9676 257.64 53.7455 257.64 53.2877C257.64 53.0334 257.081 52.8807 256.368 52.8807C254.995 52.8807 253.723 51.1512 249.857 44.1822L247.975 40.7741L249.501 40.1636C251.739 39.248 254.995 35.4837 255.402 33.2964C256.114 29.2778 253.367 25.1066 249.145 23.9366C246.805 23.2753 237.7 23.3262 233.478 23.9875ZM245.991 30.5495C246.805 31.3634 247.009 32.0247 246.754 33.1438C246.144 36.0942 243.041 39.1463 240.548 39.1463C239.785 39.1463 239.734 38.6885 240.04 34.7207C240.243 32.279 240.548 30.0917 240.65 29.8882C241.21 29.0235 244.923 29.4813 245.991 30.5495Z" fill="currentColor"/>
<path d="M266.135 24.2418C263.388 24.9031 262.676 25.2592 262.473 26.1239C262.015 28.413 260.082 57.5606 260.387 57.815C260.692 58.1202 267.916 56.4924 268.882 55.882C269.34 55.6276 270.052 48.0991 271.629 27.2939C271.934 22.7666 272.188 22.8684 266.135 24.2418Z" fill="currentColor"/>
<path d="M92.8897 37.5694L87.5485 37.8746L85.3612 40.5706C84.1403 42.0458 83.1738 43.4701 83.1738 43.6736C83.1738 44.3858 85.0051 44.4875 92.7371 44.3349L100.062 44.1314L101.486 41.0793C102.3 39.3498 102.86 37.7729 102.707 37.5185C102.453 37.1116 102.046 37.1116 92.8897 37.5694Z" fill="currentColor"/>
<!-- upto here is blue currentColor -->
<!-- from here is currentColor -->
<path d="M29.7283 16.5789C26.9781 17.4957 25.3451 18.7276 24.371 20.647C23.7694 21.8216 23.2537 26.2908 23.2824 30.1011C23.311 31.9632 23.97 34.7135 24.5716 35.401C24.7721 35.6302 25.2878 36.5756 25.7175 37.4924C28.5537 43.5659 33.7678 45.7432 37.8072 42.5345C39.2396 41.3886 41.2164 38.7243 41.818 37.1199C42.0758 36.4037 42.5342 35.5156 42.8207 35.1432C43.451 34.2837 43.8234 32.9373 44.0812 30.4735C44.1958 29.2989 44.1672 28.3821 43.9953 28.1816C43.8234 27.9811 43.6229 26.4627 43.5369 24.8011C43.3937 21.3632 42.9926 20.246 41.4169 18.7276C39.5834 16.9514 37.9504 16.407 34.1688 16.2925C31.9915 16.2352 30.5018 16.3498 29.7283 16.5789ZM36.8904 18.0687C37.8358 18.3265 38.8099 18.7276 39.0677 18.9568C39.6694 19.5011 40.3856 22.2514 40.5861 24.7438L40.758 26.5486L39.3829 26.3194C37.664 26.033 30.1867 26.033 28.2386 26.3194L26.7202 26.5486V24.4C26.7202 22.1368 27.3505 19.6443 28.124 18.9568C29.4418 17.7822 33.9683 17.3238 36.8904 18.0687ZM26.2905 20.7043C26.1759 20.9908 26.004 22.4232 25.8894 23.913C25.7748 25.6892 25.6029 26.6632 25.3737 26.7492C24.5429 27.007 25.03 21.707 25.9467 20.5611C26.3478 20.0454 26.5197 20.1314 26.2905 20.7043ZM41.9039 21.9076C42.2764 23.1968 42.2764 26.8065 41.9326 26.8065C41.6461 26.8065 41.5029 26.0043 41.1877 22.7384C41.1018 21.8503 40.9585 20.8762 40.8439 20.5897C40.6721 20.1314 40.7007 20.1314 41.1304 20.4751C41.3883 20.6757 41.732 21.3346 41.9039 21.9076ZM39.0104 27.2648C40.6721 27.494 42.1045 27.7519 42.1618 27.8378C42.4196 28.067 41.6175 29.3848 40.9299 29.8146C40.271 30.2729 40.0704 30.2443 37.8645 29.7C34.885 28.9551 32.5932 28.9265 29.7283 29.6713C26.7489 30.4448 26.577 30.4162 25.6889 29.2129C25.03 28.3821 24.9727 28.153 25.3164 27.9238C25.5456 27.7805 25.8608 27.6659 26.004 27.6659C26.1759 27.6373 27.3791 27.4654 28.7256 27.2648C32.0488 26.7205 35.3721 26.7205 39.0104 27.2648ZM37.8931 31.2756C39.698 31.82 40.6721 31.7627 41.6461 31.0751L42.5056 30.4735L42.305 31.3043C41.818 33.5675 41.5888 34.2264 41.3023 34.3124C41.1018 34.3697 40.7007 35.1432 40.3569 36.0599C39.5834 38.1513 37.7786 40.5864 36.3461 41.5318C34.7132 42.5918 32.7364 42.5632 30.9888 41.4745C29.4132 40.4432 28.3818 39.0967 27.1213 36.4037C26.577 35.2291 26.0326 34.2551 25.8894 34.2551C25.6316 34.2551 25.0013 32.0778 25.0013 31.247C25.0013 30.8173 25.0586 30.8173 25.6316 31.2183C26.4337 31.7913 27.9235 31.7913 29.757 31.2756C30.5305 31.0465 31.5618 30.7886 32.0202 30.7313C33.2807 30.5308 36.4034 30.8459 37.8931 31.2756Z" fill="currentColor"/>
<path d="M31.0172 20.246C28.3529 21.306 28.8686 23.2541 31.9913 23.9703C36.2599 24.9157 39.841 22.0508 36.3745 20.4752C35.0567 19.9022 32.2205 19.7589 31.0172 20.246Z" fill="currentColor"/>
<path d="M23.1104 42.0475C19.2429 44.0529 17.3234 45.6 16.7218 47.2329C16.378 48.1497 16.2921 52.3037 16.6358 52.3037C16.7504 52.3037 17.1515 52.0459 17.5526 51.7307C18.1542 51.2724 18.7272 51.1578 20.8758 51.1578H23.4828L25.1731 52.447L26.8634 53.7075L33.5385 53.7361H40.2136L42.0184 52.447L43.852 51.1578H46.4017C48.5503 51.1578 49.1233 51.2437 49.7249 51.7307C50.126 52.0459 50.5271 52.3037 50.613 52.3037C50.699 52.3037 50.7849 51.2724 50.7849 50.0118C50.7849 46.2302 49.8395 45.0556 44.4536 42.2194L41.9898 40.9016L40.2709 42.7065C37.979 45.027 36.919 45.514 33.9682 45.6573C30.9888 45.8005 29.585 45.1989 27.1212 42.6778L25.345 40.9016L23.1104 42.0475Z" fill="currentColor"/>
<path d="M17.1802 54.1945C16.1202 54.9394 15.2607 55.6842 15.2607 55.9134C15.2607 56.1999 15.977 56.3145 18.2115 56.3718L21.1337 56.4578V59.0361V61.6145L18.2115 61.7004C14.6018 61.7864 14.4872 62.0442 17.1229 63.8777C18.9278 65.1383 19.0996 65.1956 20.9332 65.1956C22.7667 65.1669 22.9386 65.1096 24.5429 63.9064L26.2331 62.6172H33.6818H41.1017L42.7633 63.9064C44.3677 65.1383 44.5109 65.1956 46.3444 65.1956C48.1779 65.1956 48.3785 65.1383 50.0974 63.8777C52.7044 62.0442 52.5611 61.7864 49.0087 61.7004L46.0579 61.6145V59.0361V56.4578L49.0087 56.3718C52.5898 56.2859 52.7044 55.9994 49.9541 54.1372C48.2925 52.9913 48.006 52.8767 46.3444 52.8767C44.6541 52.8767 44.425 52.9626 42.792 54.1659L41.0444 55.4551H33.6531H26.2618L24.4856 54.1659C22.824 52.9626 22.5948 52.8767 20.9045 52.8767C19.2142 52.8767 18.9564 52.9626 17.1802 54.1945Z" fill="currentColor"/>
</svg>
