<svg width="16" height="16" viewBox="0 0 16 16" fill="none" xmlns="http://www.w3.org/2000/svg">
<path fill-rule="evenodd" clip-rule="evenodd" d="M6.44865 0.45493L5.31865 1.63119C5.22741 1.7263 5.10372 1.77987 4.97465 1.78018H3.19665C2.37465 1.78018 1.70865 2.47406 1.70865 3.33047V5.18291C1.7084 5.31769 1.65699 5.4469 1.56565 5.54235L0.43565 6.71861C0.156703 7.00933 0 7.40358 0 7.81465C0 8.22573 0.156703 8.61997 0.43565 8.91069L1.56565 10.088C1.65693 10.1831 1.70835 10.3119 1.70865 10.4464V12.2988C1.70865 13.1552 2.37465 13.8491 3.19665 13.8491H4.97465C5.10402 13.8494 5.22804 13.9029 5.31965 13.9981L6.44865 15.1754C6.72769 15.466 7.10609 15.6293 7.50065 15.6293C7.89521 15.6293 8.27361 15.466 8.55265 15.1754L9.68265 13.9981C9.7739 13.903 9.89758 13.8494 10.0267 13.8491H11.8047C12.6266 13.8491 13.2927 13.1552 13.2927 12.2988V10.4464C13.2929 10.3116 13.3443 10.1824 13.4357 10.087L14.5656 8.91069C14.8446 8.61997 15.0013 8.22573 15.0013 7.81465C15.0013 7.40358 14.8446 7.00933 14.5656 6.71861L13.4357 5.54131C13.3444 5.44624 13.293 5.31737 13.2927 5.18291V3.33047C13.2927 2.47406 12.6266 1.78018 11.8047 1.78018H10.0267C9.89724 1.78014 9.77314 1.72655 9.68165 1.63119L8.55265 0.453888C8.27361 0.163263 7.89521 0 7.50065 0C7.10609 0 6.72769 0.163263 6.44865 0.453888V0.45493ZM4.64665 10.0505L9.64665 4.84117L10.3547 5.57881L5.35465 10.7881L4.64665 10.0505ZM5.00065 5.20999V6.25186H6.00065V5.20999H5.00065ZM9.00065 10.4193H10.0007V9.37745H9.00065V10.4193Z" fill="#219653"/>
</svg>
