<svg width="24" height="19" viewBox="0 0 24 19" fill="none" xmlns="http://www.w3.org/2000/svg">
<path d="M0.936523 9.5V18.5H5.96543C10.0891 18.5 10.9943 18.2 10.9943 16.7C10.9943 15.7 11.4972 14.4 12.2013 13.7C12.8047 13.1 13.4082 11.3 13.6094 9.8C13.7099 8.3 14.2128 5.5 14.5146 3.7L15.2186 0.5H8.07756H0.936523V9.5ZM6.97121 5.5C6.97121 6 6.56889 6.5 5.96543 6.5C5.46253 6.5 4.95964 6 4.95964 5.5C4.95964 4.9 5.46253 4.5 5.96543 4.5C6.56889 4.5 6.97121 4.9 6.97121 5.5ZM10.9943 5.5C10.9943 6 10.592 6.5 9.98855 6.5C9.48566 6.5 8.98277 6 8.98277 5.5C8.98277 4.9 9.48566 4.5 9.98855 4.5C10.592 4.5 10.9943 4.9 10.9943 5.5ZM6.97121 9.5C6.97121 10 6.56889 10.5 5.96543 10.5C5.46253 10.5 4.95964 10 4.95964 9.5C4.95964 8.9 5.46253 8.5 5.96543 8.5C6.56889 8.5 6.97121 8.9 6.97121 9.5ZM10.9943 9.5C10.9943 10 10.592 10.5 9.98855 10.5C9.48566 10.5 8.98277 10 8.98277 9.5C8.98277 8.9 9.48566 8.5 9.98855 8.5C10.592 8.5 10.9943 8.9 10.9943 9.5ZM6.97121 13.5C6.97121 14 6.56889 14.5 5.96543 14.5C5.46253 14.5 4.95964 14 4.95964 13.5C4.95964 12.9 5.46253 12.5 5.96543 12.5C6.56889 12.5 6.97121 12.9 6.97121 13.5ZM10.9943 13.5C10.9943 14 10.592 14.5 9.98855 14.5C9.48566 14.5 8.98277 14 8.98277 13.5C8.98277 12.9 9.48566 12.5 9.98855 12.5C10.592 12.5 10.9943 12.9 10.9943 13.5Z" fill="#0A117F"/>
<path d="M15.4197 7.89996C14.4139 10.5 15.822 12.7 18.2359 12.3C21.5549 11.9 21.5549 7.09996 18.2359 6.69996C16.9283 6.49996 15.7214 6.99996 15.4197 7.89996Z" fill="#0A117F"/>
<path d="M14.2126 14.7C11.5976 17.3 12.9051 18.5 18.0346 18.5C21.4542 18.5 23.0635 18.1 23.0635 17.2C23.0635 13.9 16.8277 12.1 14.2126 14.7Z" fill="#0A117F"/>
</svg>
