<svg width="18" height="24" viewBox="0 0 18 24" fill="none" xmlns="http://www.w3.org/2000/svg">
<path d="M14.625 9.10194V6.375C14.625 3.27338 12.1016 0.75 9 0.75C5.89838 0.75 3.375 3.27338 3.375 6.375V9.10194C1.39162 9.97269 0 11.9494 0 14.25V17.625C0 20.7266 2.52338 23.25 5.625 23.25H12.375C15.4766 23.25 18 20.7266 18 17.625V14.25C18 11.9494 16.6084 9.97269 14.625 9.10194ZM5.625 6.375C5.625 4.51425 7.13925 3 9 3C10.8608 3 12.375 4.51425 12.375 6.375V8.625H5.625V6.375ZM15.75 17.625C15.75 19.4857 14.2358 21 12.375 21H5.625C3.76425 21 2.25 19.4857 2.25 17.625V14.25C2.25 12.3892 3.76425 10.875 5.625 10.875H12.375C14.2358 10.875 15.75 12.3892 15.75 14.25V17.625ZM10.125 15.375V16.5C10.125 17.1221 9.621 17.625 9 17.625C8.379 17.625 7.875 17.1221 7.875 16.5V15.375C7.875 14.7529 8.379 14.25 9 14.25C9.621 14.25 10.125 14.7529 10.125 15.375Z" fill="#212E7E"/>
</svg>
