<svg width="30" height="30" viewBox="0 0 30 30" fill="none" xmlns="http://www.w3.org/2000/svg">
<path d="M21.0605 10.4688L14.4336 26.7812H17.1093L18.4964 23.4961H23.6247L25.0118 26.7812H27.6875L21.0605 10.4688ZM19.5488 21.0039L21.0605 16.3509L22.5723 21.0039H19.5488Z" fill="#212E7E"/>
<path d="M15.9062 18.625C15.8921 18.6142 14.74 17.7318 13.3336 16.2081C15.5755 13.1699 16.8454 9.71656 17.3636 8.08984H20.4375V5.59766H12.6211V3.21875H10.1289V5.59766H2.3125V8.08984H14.731C14.1917 9.61631 13.1988 12.0264 11.6843 14.2274C9.83324 11.767 9.01422 9.92953 9.00346 9.91027L8.59961 9.10938L6.44727 10.3555L6.83639 11.1405C6.8868 11.2289 7.81004 13.2872 9.9352 16.0439C9.9873 16.1124 10.04 16.1793 10.0927 16.2461C7.27648 19.4667 5.04314 20.7258 5.01426 20.7473L4.125 21.3438L5.42773 23.3828L6.5209 22.7331C6.64551 22.6386 8.86186 21.3738 11.7318 18.1577C13.1207 19.6462 14.1798 20.4704 14.241 20.5179L14.9434 21.0039L15.9062 18.625Z" fill="#212E7E"/>
</svg>
