<svg width="20" height="23" viewBox="0 0 20 23" fill="none" xmlns="http://www.w3.org/2000/svg">
<g clip-path="url(#clip0_2_2802)">
<path d="M7.10444 21.6703V16.7109L3.9751 19.4422C4.85617 20.4125 5.91954 21.1672 7.10444 21.6703Z" fill="#2A5F9E"/>
<path d="M13.1807 21.6701C14.3656 21.167 15.4289 20.4123 16.31 19.442L13.1807 16.6748V21.6701Z" fill="#2A5F9E"/>
<path d="M1.54443 15.0938C1.63558 15.4531 1.75711 15.7766 1.90902 16.1359L3.09391 15.0938H1.54443Z" fill="#2A5F9E"/>
<path d="M17.1909 15.0938L18.3758 16.1359C18.4973 15.8125 18.6189 15.4531 18.7404 15.0938H17.1909Z" fill="#2A5F9E"/>
<path d="M7.56028 13.6562H1.21045C1.3016 14.1594 1.42312 14.6266 1.54465 15.0938H3.09413L1.90923 16.1359C2.15229 16.7469 2.42573 17.2859 2.75993 17.825L5.88927 15.0938H7.10455V15.8125L3.54986 18.9031L3.97521 19.4063L7.10455 16.7109V21.6703C7.49951 21.85 7.89448 21.9578 8.31982 22.0656V13.6562H7.56028Z" fill="white"/>
<path d="M19.0752 13.6562H11.9658V22.0656C12.3912 21.9578 12.7861 21.8141 13.1811 21.6703V16.7109L16.3104 19.4063C16.7358 18.9391 17.1004 18.4359 17.465 17.8969L14.2141 15.0938H16.2801L18.1334 16.7109C18.2245 16.5313 18.3156 16.3156 18.3764 16.1359L17.1915 15.0938H18.741C18.8625 14.6266 18.984 14.1594 19.0752 13.6562Z" fill="white"/>
<path d="M2.75977 17.8252C3.00282 18.2205 3.24588 18.5799 3.51931 18.9393L7.10438 15.8486V15.1299H5.88911L2.75977 17.8252Z" fill="#ED4C5C"/>
<path d="M14.2441 15.0938L17.495 17.8969C17.6165 17.7172 17.7077 17.5375 17.8292 17.3578C17.8596 17.3219 17.8596 17.2859 17.89 17.2859C17.9811 17.1062 18.1026 16.8906 18.1938 16.7109L16.2797 15.0938H14.2441Z" fill="#ED4C5C"/>
<path d="M13.1807 1.32959V6.28896L16.31 3.55771C15.4289 2.5874 14.3656 1.83271 13.1807 1.32959Z" fill="#2A5F9E"/>
<path d="M7.10444 1.32959C5.91954 1.83271 4.85617 2.5874 3.9751 3.55771L7.10444 6.3249V1.32959Z" fill="#2A5F9E"/>
<path d="M18.7404 7.90596C18.6493 7.54658 18.5277 7.22314 18.3758 6.86377L17.1909 7.90596H18.7404Z" fill="#2A5F9E"/>
<path d="M3.09391 7.90596L1.90902 6.86377C1.78749 7.22314 1.66596 7.54658 1.54443 7.90596H3.09391Z" fill="#2A5F9E"/>
<path d="M12.7254 9.34395H19.0448C18.9537 8.84082 18.8321 8.37363 18.7106 7.90645H17.1611L18.346 6.86426C18.103 6.25332 17.8295 5.71426 17.4953 5.1752L14.3964 7.90645H13.1811V7.1877L16.7358 4.09707L16.3104 3.59395L13.1811 6.28926V1.32988C12.7861 1.1502 12.3912 1.04238 11.9658 0.93457V9.34395H12.7254Z" fill="white"/>
<path d="M1.21045 9.34395H8.31982V0.93457C7.89448 1.04238 7.49951 1.18613 7.10455 1.32988V6.28926L3.97521 3.59395C3.54986 4.06113 3.18528 4.56426 2.82069 5.10332L6.07156 7.90645H4.00559L2.15229 6.28926C2.06114 6.46895 1.97 6.68457 1.90923 6.86426L3.09413 7.90645H1.54465C1.42312 8.37363 1.3016 8.84082 1.21045 9.34395Z" fill="white"/>
<path d="M17.5253 5.1751C17.2822 4.77978 17.0392 4.42041 16.7657 4.06104L13.1807 7.15166V7.87041H14.3959L17.5253 5.1751Z" fill="#ED4C5C"/>
<path d="M6.04085 7.90615L2.82037 5.10303C2.69884 5.28271 2.60769 5.4624 2.48617 5.64209C2.45578 5.67803 2.45578 5.71396 2.4254 5.71396C2.33426 5.89365 2.21273 6.10928 2.12158 6.28896L3.97488 7.90615H6.04085Z" fill="#ED4C5C"/>
<path d="M19.0747 9.34375H11.9653V0.934375C11.3881 0.790625 10.7804 0.71875 10.1424 0.71875C9.5044 0.71875 8.89676 0.790625 8.3195 0.934375V9.34375H1.21012C1.0886 10.0266 1.02783 10.7453 1.02783 11.5C1.02783 12.2547 1.0886 12.9734 1.21012 13.6562H8.3195V22.0656C8.89676 22.2094 9.5044 22.2812 10.1424 22.2812C10.7804 22.2812 11.3881 22.2094 11.9653 22.0656V13.6562H19.0747C19.1962 12.9734 19.257 12.2547 19.257 11.5C19.257 10.7453 19.1962 10.0266 19.0747 9.34375Z" fill="#ED4C5C"/>
</g>
<defs>
<clipPath id="clip0_2_2802">
<rect width="19.4444" height="23" fill="white" transform="translate(0.42041)"/>
</clipPath>
</defs>
</svg>
