<svg width="20" height="22" viewBox="0 0 20 22" fill="none" xmlns="http://www.w3.org/2000/svg">
<path d="M0.42041 11C0.42041 15.629 3.26099 19.5512 7.18369 21V1C3.26099 2.44876 0.42041 6.37102 0.42041 11Z" fill="#428BC1"/>
<path d="M19.0196 11C19.0196 6.37102 16.2129 2.44876 12.2563 1V21C16.2129 19.5512 19.0196 15.629 19.0196 11Z" fill="#ED4C5C"/>
<path d="M7.18311 21.3767C7.96934 21.78 8.83166 22 9.71934 22C10.607 22 11.4693 21.78 12.2556 21.3767V0.623333C11.4693 0.22 10.6324 0 9.71934 0C8.80629 0 7.96934 0.22 7.18311 0.623333V21.3767Z" fill="white"/>
</svg>
