<svg width="19" height="21" viewBox="0 0 19 21" fill="none" xmlns="http://www.w3.org/2000/svg">
<path d="M2.25 0.5H11.25C11.7804 0.5 12.2891 0.710714 12.6642 1.08579C13.0393 1.46086 13.25 1.96957 13.25 2.5V4.5H11.25V2.5H2.25V18.5H11.25V16.5H13.25V18.5C13.25 19.0304 13.0393 19.5391 12.6642 19.9142C12.2891 20.2893 11.7804 20.5 11.25 20.5H2.25C1.71957 20.5 1.21086 20.2893 0.835786 19.9142C0.460714 19.5391 0.25 19.0304 0.25 18.5V2.5C0.25 1.96957 0.460714 1.46086 0.835786 1.08579C1.21086 0.710714 1.71957 0.5 2.25 0.5Z" fill="#0A117F"/>
<path d="M12.34 14.09L13.75 15.5L18.75 10.5L13.75 5.5L12.34 6.91L14.92 9.5H5.25V11.5H14.92L12.34 14.09Z" fill="#0A117F"/>
</svg>
