<svg width="18" height="21" viewBox="0 0 18 21" fill="none" xmlns="http://www.w3.org/2000/svg">
<path d="M9 10.5C11.6828 10.5 13.8571 8.26172 13.8571 5.5C13.8571 2.73828 11.6828 0.5 9 0.5C6.31719 0.5 4.14286 2.73828 4.14286 5.5C4.14286 8.26172 6.31719 10.5 9 10.5ZM12.4 11.75H11.7663C10.9239 12.1484 9.98661 12.375 9 12.375C8.01339 12.375 7.07991 12.1484 6.23371 11.75H5.6C2.78437 11.75 0.5 14.1016 0.5 17V18.625C0.5 19.6602 1.31585 20.5 2.32143 20.5H15.6786C16.6842 20.5 17.5 19.6602 17.5 18.625V17C17.5 14.1016 15.2156 11.75 12.4 11.75Z" fill="#0A117F"/>
</svg>
