<svg width="18" height="20" viewBox="0 0 18 20" fill="none" xmlns="http://www.w3.org/2000/svg">
<path d="M17.4545 13.6465L16.3486 11.8005C15.9526 11.1405 15.7445 10.3855 15.7445 9.61646V6.9895C15.7445 3.2735 12.7186 0.249512 8.99955 0.249512C5.28055 0.249512 2.25454 3.2725 2.25454 6.9895V9.61646C2.25454 10.3855 2.04554 11.1405 1.65054 11.8005L0.544551 13.6465C0.159551 14.2875 0.15055 15.0595 0.51855 15.7095C0.88755 16.3615 1.55454 16.7505 2.30354 16.7505H6.28355C6.27555 16.8345 6.25055 16.9155 6.25055 17.0005C6.25055 18.5175 7.48355 19.7505 9.00055 19.7505C10.5175 19.7505 11.7505 18.5175 11.7505 17.0005C11.7505 16.9155 11.7255 16.8345 11.7175 16.7505H15.6976C16.4466 16.7505 17.1145 16.3615 17.4825 15.7104C17.8495 15.0594 17.8395 14.2875 17.4545 13.6465ZM10.2485 17.0005C10.2485 17.6895 9.68755 18.2505 8.99855 18.2505C8.30955 18.2505 7.74855 17.6895 7.74855 17.0005C7.74855 16.9155 7.76455 16.8325 7.78155 16.7505H10.2155C10.2325 16.8325 10.2485 16.9155 10.2485 17.0005ZM16.1755 14.9705C16.1275 15.0545 15.9866 15.2495 15.6956 15.2495H2.30154C2.01154 15.2495 1.86954 15.0545 1.82154 14.9705C1.77454 14.8865 1.67955 14.6655 1.82855 14.4175L2.93455 12.5715C3.47055 11.6785 3.75254 10.6565 3.75254 9.61646V6.9895C3.75254 4.1005 6.10554 1.74951 8.99754 1.74951C11.8895 1.74951 14.2425 4.1005 14.2425 6.9895V9.61646C14.2425 10.6565 14.5255 11.6785 15.0605 12.5715L16.1665 14.4175C16.3165 14.6655 16.2225 14.8865 16.1755 14.9705Z" fill="#212E7E"/>
</svg>
