<svg width="24" height="24" viewBox="0 0 24 24" fill="none" xmlns="http://www.w3.org/2000/svg">
<path d="M12.0001 11.5199C11.2801 11.5199 10.8001 11.9999 10.8001 12.7199C10.8001 13.1999 11.1601 13.5599 11.5201 13.6799L11.1601 15.3599H12.7201L12.3601 13.6799C12.8401 13.5599 13.0801 13.1999 13.0801 12.7199C13.2001 11.9999 12.7201 11.5199 12.0001 11.5199ZM12.1201 6.3599C11.2801 6.3599 10.4401 6.9599 10.4401 7.7999V9.5999H13.6801V7.7999C13.5601 6.9599 12.9601 6.3599 12.1201 6.3599ZM12.0001 2.3999L3.6001 5.9999V9.5999C3.7201 14.8799 7.0801 19.5599 12.0001 21.4799C16.9201 19.5599 20.2801 14.8799 20.4001 9.5999V5.9999L12.0001 2.3999ZM16.8001 15.5999C16.8001 16.3199 16.3201 16.7999 15.6001 16.7999H8.4001C7.6801 16.7999 7.2001 16.3199 7.2001 15.5999V10.7999C7.2001 10.0799 7.6801 9.5999 8.4001 9.5999H8.7601V7.7999C8.8801 6.1199 10.3201 4.7999 12.0001 4.7999C13.6801 4.7999 15.1201 6.1199 15.2401 7.7999V9.5999H15.6001C16.3201 9.5999 16.8001 10.0799 16.8001 10.7999V15.5999Z" fill="#212E7C"/>
</svg>
