<svg width="21" height="32" viewBox="0 0 21 32" fill="none" xmlns="http://www.w3.org/2000/svg">
<path d="M9.71292 0.607587L8.87631 1.14887L8.02908 0.938618C7.56062 0.826481 7.14733 0.741881 7.1128 0.755724C7.07145 0.769213 6.77341 1.13351 6.44776 1.56663L5.85177 2.35019L4.97565 2.45004C4.49283 2.51019 4.08578 2.57065 4.06489 2.59105C4.04402 2.60462 3.91116 3.05251 3.76433 3.57579L3.49834 4.53302L2.70379 4.96424C1.97117 5.36125 1.90919 5.40912 1.92212 5.58835C1.92853 5.69178 1.96798 6.14688 2.00778 6.59547C2.10061 7.51969 2.15651 7.36838 1.39429 8.24783L0.895361 8.83179L1.3538 9.72986L1.81904 10.6351L1.51904 11.482C1.35845 11.9502 1.22581 12.3425 1.22572 12.3633C1.22564 12.3838 1.56224 12.6957 1.97441 13.0558L2.73007 13.7137L2.72836 14.1345C2.73424 14.369 2.75335 14.7895 2.77268 15.0725L2.81868 15.5966L3.75513 15.9383L4.69154 16.2867L5.03973 17.1086L5.38792 17.9304L6.41507 17.9554L7.44226 17.9733L8.09448 18.6377L8.75356 19.2952L9.67896 18.913L10.6112 18.5305L11.4577 18.9202L12.3042 19.3097L13.0448 18.6164L13.7865 17.9232L14.717 17.9683L15.6474 18.0202L16.0992 17.105L16.5511 16.183L17.414 15.9039L18.2768 15.6249L18.3567 14.6116C18.4003 14.0463 18.4712 13.5708 18.5061 13.5436C18.7757 13.3724 19.8411 12.4733 19.8413 12.4116C19.8415 12.3771 19.7191 11.9285 19.5696 11.4245L19.2975 10.5064L19.7557 9.71544C20.0334 9.22716 20.1866 8.89675 20.1592 8.84136C20.1249 8.79309 19.8507 8.41964 19.5349 8.01838L18.9724 7.28541L19.1139 6.40344C19.1917 5.90037 19.2278 5.49371 19.1935 5.4591C19.1591 5.4245 18.767 5.17479 18.32 4.89722L17.5016 4.39734L17.3191 3.54169C17.2176 3.07237 17.109 2.66512 17.0746 2.63734C17.0471 2.60959 16.6062 2.51805 16.0963 2.43338C15.5865 2.34872 15.1524 2.26404 15.1248 2.25026C15.0972 2.2365 14.8642 1.89053 14.604 1.49665C14.3299 1.07508 14.0828 0.763523 14.021 0.763273C13.9589 0.763021 13.5313 0.837053 13.062 0.931728C12.5927 1.0264 12.1787 1.10049 12.1306 1.1003C12.0893 1.10013 11.7248 0.864192 11.3259 0.579988C10.9271 0.295786 10.5902 0.0599612 10.5765 0.066734C10.5632 0.0663557 10.1691 0.313196 9.71292 0.607587ZM11.7787 2.96737C14.4245 3.42621 16.6633 5.59354 17.2041 8.23623C17.5827 10.0718 17.1956 12.0285 16.1622 13.5273C15.8361 13.9949 14.95 14.8807 14.4869 15.2098C12.6962 16.4711 10.3093 16.8061 8.29869 16.0741C7.22457 15.6837 6.53018 15.2325 5.69919 14.3882C4.40152 13.0728 3.7667 11.4846 3.77442 9.58164C3.78584 8.45102 3.98238 7.6174 4.48298 6.61982C5.16422 5.26429 6.22338 4.21369 7.57032 3.56424C8.92445 2.90734 10.3043 2.71295 11.7787 2.96737Z" fill="#EB5757"/>
<path d="M9.91452 3.57974C8.17642 3.73821 6.51067 4.73789 5.46324 6.26428C4.26335 8.01768 4.12229 10.4852 5.11399 12.4339C6.00316 14.1681 7.67391 15.3813 9.62372 15.6998C10.9743 15.9261 12.444 15.6355 13.7155 14.8891C14.372 14.5126 15.3828 13.51 15.7646 12.8566C16.5213 11.5911 16.8238 10.1167 16.6085 8.77147C16.0982 5.50781 13.2254 3.28295 9.91452 3.57974ZM11.5255 5.88923C11.9502 6.60798 12.3197 7.2231 12.3404 7.25083C12.368 7.27858 13.0843 7.46066 13.9315 7.65726C14.7857 7.85389 15.5228 8.02923 15.5709 8.04308C15.6465 8.07103 14.9815 8.86795 13.5547 10.4617C13.423 10.6059 13.4229 10.6267 13.561 12.2545C13.64 13.1582 13.699 13.9168 13.6989 13.9444C13.6988 13.9652 13.0586 13.7073 12.274 13.3663C11.4826 13.0252 10.7736 12.7258 10.6979 12.705C10.6015 12.6769 10.0214 12.8886 9.05464 13.2983C8.23279 13.6465 7.54234 13.9057 7.52162 13.8849C7.49406 13.8639 7.54556 13.1126 7.6318 12.2168L7.79026 10.5902L7.207 9.91894C6.89143 9.55215 6.39721 8.97782 6.10202 8.63876C5.7589 8.25137 5.60796 8.02313 5.67016 8.00257C5.71834 7.98911 6.45687 7.81944 7.31254 7.63007C8.16139 7.44036 8.88605 7.24331 8.91386 7.20213C8.9417 7.15379 9.33714 6.5073 9.78143 5.76476C10.3923 4.75364 10.6209 4.43069 10.676 4.49269C10.7174 4.54132 11.1009 5.16332 11.5255 5.88923Z" fill="#EB5757"/>
<path d="M5.31031 18.5647C5.28922 18.6335 4.73464 21.0721 4.0747 23.9928C3.41475 26.9135 2.81094 29.5447 2.74077 29.8479C2.6706 30.151 2.61429 30.4057 2.62144 30.4057C2.62824 30.4126 3.45711 30.0989 4.45147 29.7098C5.45267 29.3207 6.3092 29.0003 6.3505 29.0004C6.39862 29.0006 7.08567 29.6583 7.88916 30.4684L9.3381 31.9291L9.41496 31.6605C9.62502 30.8614 12.0896 19.8812 12.0763 19.7985C12.0628 19.7432 11.7186 19.5418 11.3129 19.3542L10.5628 19.0064L9.62378 19.3886L8.67692 19.7711L8.02467 19.1135L7.37242 18.456L6.35884 18.4518C5.45549 18.4482 5.3452 18.4614 5.31031 18.5647Z" fill="#EB5757"/>
<path d="M13.0788 19.0722L12.5386 19.656L11.6119 23.7339L10.6919 27.8119L11.1386 29.8477C11.3822 30.9657 11.5924 31.8972 11.606 31.9181C11.6196 31.9318 12.291 31.2936 13.1011 30.4901C13.9111 29.6866 14.6032 29.0345 14.6445 29.0347C14.6789 29.0348 15.5257 29.3625 16.5169 29.7593C17.508 30.1562 18.3204 30.4492 18.3206 30.4079C18.3209 30.3458 16.7572 23.1688 15.9721 19.6081L15.7213 18.4901L14.6733 18.4858L13.6252 18.4816L13.0788 19.0722Z" fill="#EB5757"/>
</svg>
