<svg width="28" height="25" viewBox="0 0 28 25" fill="none" xmlns="http://www.w3.org/2000/svg">
<path d="M24.1715 13.724C24.2285 13.3333 24.257 12.9297 24.257 12.5C24.257 12.0833 24.2285 11.6667 24.1573 11.276L27.0492 9.21875C27.3056 9.03646 27.3769 8.6849 27.2201 8.42448L24.4849 4.10156C24.314 3.8151 23.9579 3.72396 23.6444 3.8151L20.2397 5.0651C19.5274 4.57031 18.7724 4.15365 17.9319 3.84115L17.419 0.533854C17.362 0.221354 17.0771 0 16.7352 0H11.2648C10.9229 0 10.6522 0.221354 10.5953 0.533854L10.0824 3.84115C9.24191 4.15365 8.47264 4.58333 7.77459 5.0651L4.36984 3.8151C4.05643 3.71094 3.70029 3.8151 3.52934 4.10156L0.808384 8.42448C0.637434 8.69792 0.694417 9.03646 0.979333 9.21875L3.87124 11.276C3.80001 11.6667 3.74302 12.0964 3.74302 12.5C3.74302 12.9036 3.77152 13.3333 3.84274 13.724L0.950842 15.7812C0.694417 15.9635 0.623188 16.3151 0.779892 16.5755L3.51509 20.8984C3.68604 21.1849 4.04219 21.276 4.35559 21.1849L7.76035 19.9349C8.47264 20.4297 9.22767 20.8464 10.0682 21.1589L10.581 24.4661C10.6522 24.7786 10.9229 25 11.2648 25H16.7352C17.0771 25 17.362 24.7786 17.4048 24.4661L17.9176 21.1589C18.7581 20.8464 19.5274 20.4297 20.2254 19.9349L23.6302 21.1849C23.9436 21.2891 24.2998 21.1849 24.4707 20.8984L27.2059 16.5755C27.3769 16.2891 27.3056 15.9635 27.035 15.7812L24.1715 13.724ZM14 17.1875C11.1793 17.1875 8.87152 15.0781 8.87152 12.5C8.87152 9.92188 11.1793 7.8125 14 7.8125C16.8207 7.8125 19.1285 9.92188 19.1285 12.5C19.1285 15.0781 16.8207 17.1875 14 17.1875Z" fill="#0A117F"/>
</svg>
