<svg width="22" height="21" viewBox="0 0 22 21" fill="none" xmlns="http://www.w3.org/2000/svg">
<path d="M4.59289 13.4802C5.52372 13.4776 6.41933 13.1455 7.10126 12.5502L13.7633 16.1272C13.5401 16.9468 13.6385 17.8145 14.0405 18.5715C14.4425 19.3285 15.1212 19.9242 15.9523 20.2494C16.7835 20.5746 17.7115 20.6077 18.5665 20.3425C19.4215 20.0773 20.1462 19.5317 20.6081 18.8055C21.0699 18.0792 21.2379 17.221 21.0814 16.3878C20.9248 15.5547 20.4542 14.8024 19.7556 14.2687C19.057 13.735 18.1773 13.4555 17.2773 13.4815C16.3774 13.5075 15.5176 13.8372 14.8552 14.4102L8.19315 10.8332C8.26339 10.5832 8.3017 10.3242 8.30809 10.0652L14.853 6.55019C15.4832 7.08896 16.2915 7.40769 17.1421 7.45291C17.9928 7.49812 18.8341 7.26706 19.5249 6.7985C20.2158 6.32995 20.7141 5.65239 20.9363 4.87951C21.1586 4.10663 21.0912 3.28544 20.7455 2.55372C20.3997 1.822 19.7967 1.22426 19.0376 0.860785C18.2784 0.497308 17.4094 0.390207 16.5762 0.557451C15.7429 0.724694 14.9963 1.15611 14.4615 1.77931C13.9266 2.40252 13.6361 3.1796 13.6388 3.98019C13.643 4.26819 13.6845 4.55519 13.7633 4.83319L7.71425 8.08019C7.36346 7.57025 6.87752 7.15484 6.30418 6.87476C5.73083 6.59469 5.08981 6.45959 4.44409 6.48274C3.79837 6.50589 3.17016 6.68649 2.6212 7.0068C2.07223 7.32711 1.62139 7.77611 1.31297 8.30968C1.00455 8.84326 0.849162 9.44304 0.862072 10.0501C0.874981 10.6572 1.05575 11.2507 1.3866 11.7722C1.71746 12.2938 2.18703 12.7255 2.74918 13.025C3.31132 13.3244 3.9467 13.4813 4.59289 13.4802Z" fill="#0A117F"/>
</svg>
