<svg width="20" height="20" viewBox="0 0 20 20" fill="none" xmlns="http://www.w3.org/2000/svg">
<path d="M16 5.25H15.75V4C15.75 1.932 14.068 0.25 12 0.25H4C1.932 0.25 0.25 1.932 0.25 4V14C0.25 14.305 0.435003 14.579 0.716003 14.694C0.808003 14.732 0.904 14.75 1 14.75C1.198 14.75 1.39201 14.672 1.53601 14.525L3.27499 12.75H4.25V14C4.25 16.068 5.932 17.75 8 17.75H16.725L18.464 19.525C18.608 19.672 18.802 19.75 19 19.75C19.096 19.75 19.192 19.732 19.284 19.694C19.566 19.579 19.75 19.304 19.75 19V9C19.75 6.932 18.068 5.25 16 5.25ZM2.95999 11.25C2.75799 11.25 2.56501 11.331 2.42401 11.475L1.75 12.163V4C1.75 2.759 2.759 1.75 4 1.75H12C13.241 1.75 14.25 2.759 14.25 4V9C14.25 10.241 13.241 11.25 12 11.25H2.95999ZM18.25 17.163L17.576 16.475C17.435 16.331 17.242 16.25 17.04 16.25H8C6.759 16.25 5.75 15.241 5.75 14V12.75H12C14.068 12.75 15.75 11.068 15.75 9V6.75H16C17.241 6.75 18.25 7.759 18.25 9V17.163Z" fill="#41416E"/>
</svg>
