<svg width="28" height="20" viewBox="0 0 20 18" fill="none" xmlns="http://www.w3.org/2000/svg">
<path d="M6.5 0.5C4.92 0.5 3.59702 1.559 3.16302 3H1C0.448 3 0 3.447 0 4C0 4.553 0.448 5 1 5H3.16302C3.59702 6.441 4.92 7.5 6.5 7.5C8.43 7.5 10 5.93 10 4C10 2.07 8.43 0.5 6.5 0.5ZM6.5 5.5C5.673 5.5 5 4.827 5 4C5 3.173 5.673 2.5 6.5 2.5C7.327 2.5 8 3.173 8 4C8 4.827 7.327 5.5 6.5 5.5ZM12 4C12 3.447 12.448 3 13 3H19C19.552 3 20 3.447 20 4C20 4.553 19.552 5 19 5H13C12.448 5 12 4.553 12 4ZM19 13H16.837C16.403 11.559 15.08 10.5 13.5 10.5C11.57 10.5 10 12.07 10 14C10 15.93 11.57 17.5 13.5 17.5C15.08 17.5 16.403 16.441 16.837 15H19C19.552 15 20 14.553 20 14C20 13.447 19.552 13 19 13ZM13.5 15.5C12.673 15.5 12 14.827 12 14C12 13.173 12.673 12.5 13.5 12.5C14.327 12.5 15 13.173 15 14C15 14.827 14.327 15.5 13.5 15.5ZM8 14C8 14.553 7.552 15 7 15H1C0.448 15 0 14.553 0 14C0 13.447 0.448 13 1 13H7C7.552 13 8 13.447 8 14Z" fill="#FAFAFF"/>
</svg>
