<svg width="18" height="20" viewBox="0 0 18 20" fill="currentColor" xmlns="http://www.w3.org/2000/svg">
<path d="M9.25 10C11.9328 10 14.1071 7.76172 14.1071 5C14.1071 2.23828 11.9328 0 9.25 0C6.56719 0 4.39286 2.23828 4.39286 5C4.39286 7.76172 6.56719 10 9.25 10ZM12.65 11.25H12.0163C11.1739 11.6484 10.2366 11.875 9.25 11.875C8.26339 11.875 7.32991 11.6484 6.48371 11.25H5.85C3.03437 11.25 0.75 13.6016 0.75 16.5V18.125C0.75 19.1602 1.56585 20 2.57143 20H15.9286C16.9342 20 17.75 19.1602 17.75 18.125V16.5C17.75 13.6016 15.4656 11.25 12.65 11.25Z" fill="currentColor"/>
</svg>
