<svg width="21" height="22" viewBox="0 0 21 22" fill="currentColor" xmlns="http://www.w3.org/2000/svg">
<path d="M6.75 17.2513C5.65 17.2513 4.76 18.189 4.76 19.335C4.76 20.4811 5.65 21.4188 6.75 21.4188C7.85 21.4188 8.75 20.4811 8.75 19.335C8.75 18.189 7.85 17.2513 6.75 17.2513ZM0.75 0.581543V2.66526H2.75L6.35 10.573L5 13.1255C4.84 13.4173 4.75 13.7611 4.75 14.1257C4.75 15.2718 5.65 16.2095 6.75 16.2095H18.75V14.1257H7.17C7.03 14.1257 6.92 14.0111 6.92 13.8653L6.95 13.7402L7.85 12.042H15.3C16.05 12.042 16.71 11.6148 17.05 10.9689L20.63 4.20722C20.71 4.06136 20.75 3.88424 20.75 3.70712C20.75 3.1341 20.3 2.66526 19.75 2.66526H4.96L4.02 0.581543H0.75ZM16.75 17.2513C15.65 17.2513 14.76 18.189 14.76 19.335C14.76 20.4811 15.65 21.4188 16.75 21.4188C17.85 21.4188 18.75 20.4811 18.75 19.335C18.75 18.189 17.85 17.2513 16.75 17.2513Z" fill="currentColor"/>
</svg>
