<svg width="20" height="20" viewBox="0 0 20 20" fill="currentColor" xmlns="http://www.w3.org/2000/svg">
<path d="M17.728 5.31544L12.728 1.29403C11.002 -0.093452 8.498 -0.093452 6.772 1.29403L1.772 5.31544C0.646003 6.22075 0 7.5682 0 9.0127V15.0068C0 17.6237 2.131 19.7534 4.75 19.7534H7.5V15.0068C7.5 13.7684 8.509 12.76 9.75 12.76C10.991 12.76 12 13.7684 12 15.0068V19.7534H14.75C17.369 19.7534 19.5 17.6247 19.5 15.0068V9.0127C19.5 7.5682 18.854 6.22075 17.728 5.31544ZM18 15.0068C18 16.7964 16.542 18.2529 14.75 18.2529H13.5V15.0068C13.5 12.9411 11.818 11.2594 9.75 11.2594C7.682 11.2594 6 12.9411 6 15.0068V18.2529H4.75C2.958 18.2529 1.5 16.7964 1.5 15.0068V9.0127C1.5 8.02536 1.941 7.10406 2.711 6.48485L7.711 2.46344C8.893 1.51411 10.607 1.51411 11.788 2.46344L16.788 6.48485C17.558 7.10406 17.999 8.02536 17.999 9.0127V15.0068H18Z" fill="currentColor"/>
</svg>
