<svg width="20" height="20" viewBox="0 0 20 20" fill="currentColor" xmlns="http://www.w3.org/2000/svg">
<path d="M18.75 16C18.75 17.93 17.18 19.5 15.25 19.5H12.78V17C12.78 15.62 11.66 14.5 10.28 14.5C8.90003 14.5 7.78003 15.62 7.78003 17V19.5H5.25C3.32 19.5 1.75 17.93 1.75 16V11.3501C2.55 11.7601 3.43999 12 4.23999 12C5.36999 12 6.47 11.53 7.25 10.78C8.02 11.53 9.12 12 10.25 12C11.38 12 12.48 11.53 13.25 10.78C14.03 11.53 15.13 12 16.26 12C17.06 12 17.95 11.7601 18.75 11.3501V16ZM19.724 6.84204L18.636 3.5769C18.023 1.7359 16.307 0.5 14.367 0.5H6.133C4.193 0.5 2.47801 1.7359 1.86401 3.5769L0.776001 6.84204C0.759001 6.89404 0.75 6.94598 0.75 7.00098C0.753 8.93098 2.31799 10.5 4.23999 10.5C5.42799 10.5 6.56801 9.91894 7.24701 9.03394C7.92001 9.91894 9.059 10.5 10.25 10.5C11.441 10.5 12.58 9.91894 13.253 9.03394C13.932 9.91894 15.073 10.5 16.26 10.5C18.181 10.5 19.747 8.93098 19.75 7.00098C19.75 6.94598 19.741 6.89404 19.724 6.84204Z" fill="currentColor"/>
</svg>
