<svg width="405" height="260" viewBox="0 0 405 260" fill="none" xmlns="http://www.w3.org/2000/svg">
<g clip-path="url(#clip0_2_1779)">
<path d="M123.166 214.076C121.743 229.99 116.509 244.549 110.926 258.575C110.741 259.052 110.551 259.522 110.357 260H52.3265C51.1529 259.565 49.9944 259.088 48.8408 258.575C42.2864 255.727 36.0987 251.383 30.5179 245.711C9.1687 223.761 0.95352 182.284 4.66413 145.119C6.97141 122.029 14.0727 98.4536 27.901 86.0177C35.2022 79.4398 44.5808 77.3018 52.9857 79.7462C53.2056 79.8033 53.4253 79.8745 53.6499 79.9387C60.8812 82.2619 67.3233 88.0345 70.9891 97.3348C77.581 114.047 73.6558 134.75 70.4148 153.35C67.1836 171.951 65.4306 194.214 74.8094 207.933C71.7131 194.927 74.7694 179.412 82.1655 170.618C87.7537 163.983 95.5344 161.496 102.631 163.555C103.31 163.762 103.979 163.997 104.638 164.282C106.232 164.948 107.768 165.866 109.218 167.019C120.279 175.835 124.759 196.138 123.166 214.076Z" fill="url(#paint0_linear_2_1779)"/>
<path d="M88.7578 258.575C90.3658 259.109 91.9788 259.579 93.6018 260H84.8275C83.6787 259.558 82.5351 259.088 81.4017 258.575C78.9096 257.463 76.4559 256.187 74.0405 254.748C64.3522 248.947 55.428 240.238 48.6761 228.65C45.374 223.036 42.6775 216.75 40.6758 210C38.5052 202.37 37.1257 194.33 36.5809 186.133C35.3573 169.314 36.6057 152.032 38.9379 135.512C41.3446 118.39 45.2297 101.761 50.504 86.0034C51.1382 84.1149 51.7941 82.2382 52.4716 80.3734C52.5182 80.2199 52.5887 80.0836 52.6779 79.9749C52.767 79.8662 52.8723 79.788 52.9859 79.7462C53.2164 79.6825 53.4552 79.7516 53.6501 79.9386C53.884 80.1301 54.0574 80.4425 54.1345 80.8112C54.2117 81.1799 54.1867 81.5767 54.0646 81.9198C48.6265 97.0538 44.5042 113.079 41.7894 129.64C39.1327 145.796 37.6245 162.7 38.1388 179.312C38.6282 194.834 41.47 210.099 47.917 222.792C53.8049 234.38 61.935 243.516 70.9293 249.738C76.6221 253.625 82.6023 256.589 88.7578 258.575Z" fill="white"/>
<path d="M108.014 260H105.427C105.138 259.53 104.858 259.052 104.584 258.575C98.6912 248.358 94.6994 236.186 92.9774 223.184C90.8862 206.958 92.513 190.203 97.6168 175.4C99.0408 171.249 100.719 167.285 102.631 163.555C103.31 163.762 103.979 163.997 104.638 164.282C99.6087 173.792 96.2257 184.864 94.7653 196.594C93.4625 207.586 93.8956 218.855 96.0331 229.578C98.1706 240.3 101.959 250.207 107.121 258.575C107.41 259.052 107.71 259.53 108.014 260Z" fill="white"/>
<path d="M341.053 247.88C341.428 252.08 342.81 255.922 344.283 259.624C344.332 259.75 344.382 259.874 344.433 260H359.748C360.058 259.885 360.364 259.759 360.668 259.624C362.398 258.872 364.031 257.726 365.504 256.229C371.139 250.436 373.307 239.489 372.327 229.681C371.718 223.587 369.844 217.365 366.195 214.083C364.213 212.36 361.849 211.769 359.574 212.428C359.516 212.443 359.458 212.462 359.399 212.478C358.453 212.74 357.555 213.284 356.767 214.075C355.978 214.866 355.316 215.887 354.823 217.07C353.083 221.48 354.119 226.944 354.975 231.853C355.827 236.762 356.29 242.638 353.815 246.259C354.178 244.744 354.251 243.12 354.028 241.551C353.805 239.983 353.294 238.528 352.546 237.335C351.798 236.143 350.842 235.256 349.774 234.766C348.707 234.276 347.567 234.2 346.472 234.546C346.293 234.601 346.116 234.663 345.942 234.738C345.522 234.914 345.117 235.156 344.734 235.461C341.814 237.787 340.632 243.146 341.053 247.88Z" fill="url(#paint1_linear_2_1779)"/>
<path d="M350.134 259.624C349.71 259.765 349.284 259.889 348.855 260H351.171C351.474 259.883 351.776 259.759 352.075 259.624C352.733 259.33 353.381 258.994 354.018 258.614C356.604 257.116 358.899 254.754 360.712 251.726C361.584 250.244 362.295 248.585 362.824 246.804C363.396 244.79 363.761 242.668 363.904 240.505C364.167 236.032 363.957 231.529 363.282 227.145C362.647 222.627 361.622 218.238 360.23 214.079C360.062 213.581 359.889 213.085 359.71 212.593C359.698 212.553 359.68 212.517 359.656 212.488C359.632 212.459 359.605 212.439 359.575 212.428C359.514 212.411 359.451 212.429 359.399 212.479C359.338 212.529 359.292 212.611 359.272 212.709C359.251 212.806 359.258 212.911 359.29 213.001C360.725 216.996 361.813 221.225 362.53 225.596C363.268 229.882 363.592 234.293 363.493 238.705C363.44 242.809 362.543 246.799 360.912 250.18C359.327 253.225 357.241 255.667 354.839 257.292C353.337 258.317 351.758 259.1 350.134 259.624Z" fill="white"/>
<path d="M345.052 260H345.735C345.811 259.876 345.885 259.75 345.957 259.624C347.512 256.927 348.566 253.715 349.02 250.284C349.572 246.001 349.143 241.579 347.796 237.672C347.42 236.577 346.977 235.531 346.473 234.547C346.293 234.601 346.117 234.663 345.943 234.738C347.27 237.248 348.163 240.17 348.548 243.266C348.892 246.167 348.778 249.141 348.214 251.971C347.65 254.801 346.65 257.415 345.288 259.624C345.211 259.75 345.132 259.876 345.052 260Z" fill="white"/>
<path d="M203.01 151.447H155.077L154.569 130.416C154.547 129.504 154.664 128.596 154.911 127.755C155.158 126.914 155.531 126.159 156.002 125.543C156.473 124.927 157.033 124.464 157.641 124.185C158.25 123.907 158.894 123.82 159.528 123.931L187.422 128.805H187.425C191.561 128.821 195.523 131.176 198.444 135.353C201.365 139.53 203.007 145.189 203.01 151.09V151.447Z" fill="#6C63FF"/>
<path d="M181.646 76.8457H148.215C147.771 76.8455 147.331 76.9704 146.92 77.2131C146.509 77.4558 146.136 77.8117 145.821 78.2603C145.507 78.709 145.258 79.2416 145.088 79.8278C144.917 80.414 144.83 81.0423 144.83 81.6768V129.384C144.83 130.018 144.917 130.647 145.088 131.233C145.258 131.819 145.507 132.352 145.821 132.8C146.136 133.249 146.509 133.605 146.92 133.848C147.331 134.09 147.771 134.215 148.215 134.215H181.646C182.091 134.215 182.531 134.09 182.942 133.848C183.353 133.605 183.726 133.249 184.04 132.8C184.355 132.352 184.604 131.819 184.774 131.233C184.944 130.647 185.032 130.018 185.032 129.384V81.6768C185.032 81.0423 184.944 80.414 184.774 79.8278C184.604 79.2416 184.355 78.7089 184.04 78.2603C183.726 77.8117 183.353 77.4558 182.942 77.2131C182.531 76.9704 182.091 76.8455 181.646 76.8457Z" fill="#FEA500"/>
<path d="M174.117 112.519L158.333 116.906C157.397 117.164 156.427 116.882 155.636 116.122C154.845 115.361 154.298 114.184 154.115 112.848L152.902 103.957C152.72 102.621 152.918 101.237 153.451 100.108C153.984 98.9799 154.809 98.1992 155.745 97.9376L171.529 93.5512C172.465 93.2926 173.435 93.5745 174.226 94.3351C175.017 95.0957 175.564 96.2729 175.747 97.6084L176.96 106.5C177.142 107.836 176.944 109.22 176.411 110.348C175.878 111.477 175.053 112.258 174.117 112.519Z" fill="#3F3D56"/>
<path d="M170.959 102.015L158.913 105.363C158.693 105.424 158.465 105.358 158.279 105.179C158.092 105 157.964 104.722 157.921 104.408C157.878 104.094 157.924 103.768 158.05 103.502C158.175 103.236 158.37 103.053 158.59 102.992L170.636 99.6441C170.856 99.5828 171.084 99.649 171.27 99.8281C171.457 100.007 171.585 100.284 171.628 100.599C171.671 100.913 171.625 101.239 171.499 101.505C171.374 101.77 171.179 101.954 170.959 102.015Z" fill="white"/>
<path d="M168.618 106.972L162.387 108.704C162.167 108.765 161.938 108.699 161.752 108.52C161.566 108.341 161.437 108.064 161.395 107.749C161.352 107.435 161.398 107.109 161.523 106.843C161.649 106.578 161.843 106.394 162.063 106.333L168.294 104.601C168.403 104.571 168.515 104.572 168.624 104.603C168.733 104.635 168.837 104.697 168.929 104.785C169.021 104.874 169.1 104.988 169.161 105.12C169.223 105.252 169.265 105.4 169.287 105.556C169.308 105.712 169.307 105.872 169.285 106.027C169.263 106.183 169.22 106.33 169.158 106.462C169.096 106.593 169.016 106.706 168.923 106.794C168.831 106.881 168.727 106.942 168.618 106.972Z" fill="white"/>
<path d="M185.032 81.6768V88.0176H144.83V81.6768C144.83 81.0423 144.917 80.414 145.088 79.8278C145.258 79.2416 145.507 78.709 145.821 78.2603C146.136 77.8117 146.509 77.4558 146.92 77.2131C147.331 76.9704 147.771 76.8455 148.215 76.8457H181.646C182.091 76.8455 182.531 76.9704 182.942 77.2131C183.353 77.4558 183.726 77.8117 184.04 78.2603C184.355 78.709 184.604 79.2416 184.774 79.8278C184.944 80.414 185.032 81.0423 185.032 81.6768Z" fill="#E29300"/>
<path d="M265.31 90.0033C265.078 88.9342 264.684 87.9507 264.157 87.1221C263.63 86.2935 262.982 85.6399 262.258 85.2075C261.535 84.775 260.754 84.5742 259.97 84.6191C259.187 84.664 258.419 84.9535 257.723 85.4673L211.73 61.919L209.704 78.3154L255.55 96.3069C256.233 97.9201 257.306 99.12 258.567 99.6792C259.828 100.238 261.189 100.118 262.392 99.3412C263.595 98.5642 264.557 97.1844 265.094 95.4634C265.632 93.7424 265.709 91.7996 265.31 90.0033Z" fill="#FFB8B8"/>
<path opacity="0.2" d="M265.31 90.0033C265.078 88.9342 264.684 87.9507 264.157 87.1221C263.63 86.2935 262.982 85.6399 262.258 85.2075C261.535 84.775 260.754 84.5742 259.97 84.6191C259.187 84.664 258.419 84.9535 257.723 85.4673L211.73 61.919L209.704 78.3154L255.55 96.3069C256.233 97.9201 257.306 99.12 258.567 99.6792C259.828 100.238 261.189 100.118 262.392 99.3412C263.595 98.5642 264.557 97.1844 265.094 95.4634C265.632 93.7424 265.709 91.7996 265.31 90.0033Z" fill="black"/>
<path d="M219.893 64.9067L215.55 81.0986C215.427 81.5593 215.235 81.9766 214.988 82.322C214.741 82.6675 214.445 82.9329 214.12 83.1004C213.795 83.2678 213.448 83.3333 213.104 83.2923C212.759 83.2514 212.425 83.1049 212.124 82.863L201.568 74.385C199.92 73.4692 198.594 71.6583 197.88 69.3493C197.167 67.0402 197.123 64.4214 197.76 62.0671C198.398 59.7127 199.663 57.8149 201.279 56.7897C202.895 55.7645 204.73 55.6955 206.381 56.598L218.168 60.3285C218.506 60.4355 218.823 60.645 219.099 60.9427C219.374 61.2405 219.602 61.6195 219.765 62.054C219.929 62.4884 220.025 62.9682 220.047 63.4605C220.069 63.9528 220.017 64.446 219.893 64.9067Z" fill="#6C63FF"/>
<path d="M268.93 104.996L252.45 115.686L254.614 127.31C258.792 149.757 259.901 173.143 257.88 196.189L269.929 199.78L279.917 163.434L276.421 122.1L268.93 104.996Z" fill="#6C63FF"/>
<path d="M301.266 158.802C290.438 158.802 281.614 170.035 281.186 184.101H321.346C320.918 170.035 312.094 158.802 301.266 158.802Z" fill="#3F3D56"/>
<path d="M292.837 161.226C292.273 97.729 266.933 103.571 266.933 103.571C266.933 103.571 267.407 123.335 267.634 123.95C283.783 167.55 257.132 218.665 223.208 209.262C222.568 209.084 221.954 208.905 221.364 208.722C217.066 207.442 213.271 203.872 210.751 198.741C208.231 193.609 207.176 187.3 207.799 181.097C211.141 142.802 194.52 143.48 194.52 143.48H170.216L157.595 127.27C157.149 126.697 156.612 126.29 156.031 126.082C155.449 125.874 154.841 125.873 154.259 126.079C153.677 126.284 153.14 126.69 152.693 127.26C152.246 127.831 151.905 128.549 151.697 129.351L150.074 135.64C150.074 135.64 126.103 139.204 128.1 172.699H135.511C135.493 173.651 135.52 174.603 135.591 175.55L190.9 174.908C194.142 174.87 197.004 178.619 197.017 183.246C197.02 184.372 196.864 185.488 196.559 186.526C196.253 187.565 195.803 188.504 195.237 189.289C194.671 190.074 194 190.688 193.263 191.094C192.527 191.5 191.741 191.69 190.952 191.652L182.035 191.228C179.288 208.688 186.03 220.447 193.459 227.841C200.453 234.702 208.752 238.339 217.239 238.264H241.463C272.925 238.264 278.419 200.493 278.419 200.493C294.899 190.515 292.837 161.226 292.837 161.226Z" fill="#AAA7D1"/>
<path d="M299.768 258.931C315.282 258.931 327.859 240.983 327.859 218.844C327.859 196.704 315.282 178.756 299.768 178.756C284.254 178.756 271.677 196.704 271.677 218.844C271.677 240.983 284.254 258.931 299.768 258.931Z" fill="#3F484F"/>
<path d="M299.768 228.669C303.57 228.669 306.653 224.27 306.653 218.844C306.653 213.417 303.57 209.018 299.768 209.018C295.965 209.018 292.883 213.417 292.883 218.844C292.883 224.27 295.965 228.669 299.768 228.669Z" fill="white"/>
<path d="M157.939 258.931C175.798 258.931 190.275 238.271 190.275 212.786C190.275 187.301 175.798 166.641 157.939 166.641C140.08 166.641 125.603 187.301 125.603 212.786C125.603 238.271 140.08 258.931 157.939 258.931Z" fill="#3F484F"/>
<path d="M157.939 224.096C162.316 224.096 165.865 219.032 165.865 212.786C165.865 206.54 162.316 201.476 157.939 201.476C153.562 201.476 150.014 206.54 150.014 212.786C150.014 219.032 153.562 224.096 157.939 224.096Z" fill="white"/>
<path d="M252.497 118.844L246.567 95.8614C246.258 94.6636 246.118 93.3906 246.153 92.1152C246.189 90.8398 246.401 89.5869 246.776 88.4281C247.151 87.2693 247.682 86.2273 248.339 85.3615C248.996 84.4957 249.767 83.8231 250.606 83.3821L267.605 74.4516C269.082 73.6755 270.652 73.3221 272.224 73.4116C273.797 73.5011 275.342 74.0318 276.771 74.9733C278.199 75.9148 279.484 77.2487 280.552 78.8989C281.62 80.549 282.449 82.4831 282.993 84.5907C283.483 86.4823 283.734 88.4835 283.732 90.5004C283.726 93.0614 283.32 95.5882 282.544 97.8972C281.767 100.206 280.64 102.239 279.244 103.849C278.236 105.003 277.102 105.915 275.888 106.549L252.497 118.844Z" fill="#3F3D56"/>
<path d="M283.482 90.5003C283.481 93.0091 283.086 95.4856 282.325 97.7475C281.564 100.009 280.458 101.999 279.088 103.57C276.985 102.779 275.028 101.344 273.353 99.3638C271.679 97.3841 270.326 94.9077 269.39 92.1067C268.454 89.3057 267.956 86.2473 267.932 83.1442C267.908 80.0411 268.357 76.9677 269.25 74.1375C270.963 73.606 272.737 73.6286 274.443 74.2038C276.149 74.779 277.743 75.8921 279.108 77.4615C280.473 79.0308 281.575 81.0166 282.332 83.2729C283.089 85.5292 283.482 87.9987 283.482 90.5003Z" fill="#6C63FF"/>
<path d="M132.345 177.331C136.206 177.331 139.337 171.907 139.337 165.216C139.337 158.525 136.206 153.101 132.345 153.101C128.484 153.101 125.354 158.525 125.354 165.216C125.354 171.907 128.484 177.331 132.345 177.331Z" fill="#6C63FF"/>
<path d="M224.764 208.101H230.887L233.8 185.44L224.763 185.441L224.764 208.101Z" fill="#FFB8B8"/>
<path d="M223.202 205.249L235.259 205.248H235.26C236.269 205.248 237.268 205.531 238.201 206.082C239.133 206.633 239.98 207.441 240.693 208.459C241.407 209.478 241.973 210.686 242.359 212.017C242.745 213.347 242.944 214.773 242.944 216.213V216.569L223.203 216.57L223.202 205.249Z" fill="#2F2E41"/>
<path d="M231.871 198.8C231.799 198.8 231.728 198.796 231.656 198.786L223.183 197.905C222.84 197.86 222.509 197.703 222.216 197.446C221.923 197.19 221.674 196.84 221.491 196.425C221.307 196.01 221.192 195.54 221.156 195.052C221.119 194.563 221.162 194.07 221.28 193.609L232.62 157.252C232.701 156.928 232.734 156.584 232.717 156.24C232.7 155.897 232.634 155.563 232.522 155.258C232.41 154.949 232.254 154.678 232.064 154.462C231.874 154.246 231.653 154.09 231.418 154.004C226.086 152.015 212.405 146.718 200.562 140.521C195.488 137.866 192.292 134.03 191.064 129.117C189.444 122.642 191.84 116.736 191.943 116.488L192.023 116.294L203.167 117.739L215.248 119.206L241.723 139.465C243.941 141.177 245.626 144.019 246.443 147.424C247.259 150.829 247.146 154.548 246.127 157.84L233.921 196.9C233.745 197.465 233.457 197.946 233.093 198.283C232.729 198.621 232.305 198.8 231.871 198.8Z" fill="#2F2E41"/>
<path d="M205.105 45.8108C211.879 45.8108 217.371 37.9741 217.371 28.3071C217.371 18.6401 211.879 10.8034 205.105 10.8034C198.331 10.8034 192.839 18.6401 192.839 28.3071C192.839 37.9741 198.331 45.8108 205.105 45.8108Z" fill="#FFB8B8"/>
<path d="M221.268 210.239H227.391L230.304 187.578L221.267 187.579L221.268 210.239Z" fill="#FFB8B8"/>
<path d="M219.707 207.387L231.764 207.386H231.764C232.773 207.386 233.773 207.669 234.705 208.22C235.637 208.771 236.484 209.579 237.198 210.597C237.911 211.616 238.477 212.824 238.863 214.155C239.25 215.485 239.448 216.911 239.448 218.351V218.707L219.707 218.708L219.707 207.387Z" fill="#2F2E41"/>
<path d="M228.375 200.938C228.304 200.938 228.232 200.934 228.16 200.924L219.687 200.043C219.344 199.998 219.014 199.841 218.72 199.584C218.427 199.328 218.179 198.978 217.995 198.563C217.811 198.148 217.697 197.678 217.66 197.19C217.624 196.701 217.666 196.208 217.785 195.747L229.124 159.39C229.205 159.066 229.238 158.722 229.222 158.378C229.205 158.035 229.138 157.701 229.026 157.396C228.915 157.087 228.759 156.816 228.568 156.6C228.378 156.384 228.158 156.228 227.922 156.142C222.59 154.153 208.909 148.856 197.066 142.659C191.992 140.004 188.797 136.168 187.568 131.255C185.949 124.78 188.345 118.874 188.447 118.626L188.528 118.432L199.672 119.877L211.753 121.344L238.227 141.603C240.446 143.315 242.131 146.157 242.947 149.562C243.763 152.967 243.65 156.686 242.631 159.978L230.426 199.038C230.249 199.603 229.961 200.084 229.597 200.421C229.234 200.759 228.809 200.938 228.375 200.938Z" fill="#2F2E41"/>
<path d="M208.888 55.7362L195.903 49.3222C195.903 49.3222 187.752 58.259 191.668 80.4289C193.712 91.8694 193.117 103.946 189.97 114.865C189.591 116.216 189.154 117.532 188.662 118.807C188.662 118.807 203.145 143.75 216.628 125.221L211.385 89.2313C211.385 89.2313 219.625 65.3571 208.888 55.7362Z" fill="#6C63FF"/>
<path d="M206.628 46.4061C204.882 42.6772 203.504 37.5067 205.426 33.9588C207.324 30.4567 211.066 30.9726 213.971 29.423C218.018 27.2645 220.366 20.4795 219.634 14.4031C218.901 8.32674 215.483 3.28958 211.411 1.22854C207.339 -0.832498 202.748 -0.162199 198.76 2.21122C193.851 5.13292 189.641 10.7848 187.875 17.9441C186.109 25.1035 187.053 33.6997 190.716 39.2026C194.643 45.1023 200.807 46.6745 206.508 46.5791" fill="#2F2E41"/>
<path d="M195.218 14.5981C193.018 17.1537 189.662 16.0186 187.301 13.7758C184.939 11.533 183.023 8.33945 180.469 6.58102C175.964 3.48097 170.519 5.54179 166.135 8.97564C161.751 12.4095 157.865 17.1534 153.235 19.8481C148.605 22.5428 142.696 22.676 139.19 17.5878C138.327 21.1553 138.256 25.0158 138.988 28.6426C139.719 32.2694 141.217 35.4858 143.276 37.853C145.336 40.2203 147.857 41.623 150.496 41.8699C153.135 42.1168 155.763 41.1957 158.022 39.2324C163.095 34.8222 165.898 25.5752 171.588 23.141C174.737 21.794 178.119 22.8789 181.301 24.0539C184.484 25.229 187.802 26.4987 191.014 25.4983C194.226 24.498 197.23 20.3792 196.821 15.7244L195.218 14.5981Z" fill="#2F2E41"/>
<path d="M264.699 89.2903C264.377 88.2703 263.901 87.3636 263.306 86.6341C262.711 85.9047 262.012 85.3703 261.256 85.0685C260.501 84.7667 259.709 84.7049 258.935 84.8874C258.161 85.07 257.425 85.4924 256.778 86.125L209.1 70.8547L208.508 87.4825L255.559 97.2642C256.376 98.7449 257.545 99.7466 258.845 100.08C260.144 100.413 261.485 100.054 262.611 99.0707C263.738 98.0878 264.573 96.5493 264.958 94.7467C265.342 92.9442 265.251 91.0027 264.699 89.2903Z" fill="#FFB8B8"/>
<path d="M217.46 72.3822L214.55 89.215C214.467 89.694 214.313 90.1418 214.098 90.5281C213.883 90.9143 213.612 91.2299 213.304 91.4533C212.996 91.6767 212.657 91.8027 212.312 91.8227C211.967 91.8428 211.622 91.7563 211.302 91.5692L200.095 85.0145C198.379 84.3974 196.905 82.8342 195.996 80.6679C195.087 78.5016 194.817 75.9092 195.246 73.4595C195.675 71.0099 196.767 68.903 198.283 67.6012C199.799 66.2995 201.615 65.9092 203.333 66.5159L215.352 68.1426C215.696 68.1893 216.029 68.3414 216.329 68.5883C216.628 68.8353 216.886 69.1713 217.086 69.5737C217.286 69.976 217.423 70.4352 217.488 70.9198C217.552 71.4044 217.543 71.9032 217.46 72.3822V72.3822Z" fill="#6C63FF"/>
<path d="M259.192 102.502C261.123 102.502 262.688 100.268 262.688 97.5129C262.688 94.7578 261.123 92.5243 259.192 92.5243C257.261 92.5243 255.696 94.7578 255.696 97.5129C255.696 100.268 257.261 102.502 259.192 102.502Z" fill="#6C63FF"/>
<path d="M414 259.287C414 259.476 413.947 259.657 413.853 259.791C413.76 259.924 413.633 259.999 413.501 260H0.499397C0.366949 260 0.239925 259.925 0.14627 259.791C0.0526145 259.658 0 259.476 0 259.287C0 259.098 0.0526145 258.917 0.14627 258.783C0.239925 258.65 0.366949 258.575 0.499397 258.575H413.501C413.633 258.575 413.76 258.65 413.853 258.784C413.947 258.918 414 259.098 414 259.287Z" fill="#3F3D56"/>
</g>
<defs>
<linearGradient id="paint0_linear_2_1779" x1="54.5" y1="64.9999" x2="63.6405" y2="260" gradientUnits="userSpaceOnUse">
<stop stop-color="#DFDFDF"/>
<stop offset="1" stop-color="#DFDFDF" stop-opacity="0"/>
</linearGradient>
<linearGradient id="paint1_linear_2_1779" x1="356.762" y1="212.165" x2="356.762" y2="260" gradientUnits="userSpaceOnUse">
<stop stop-color="#DFDFDF"/>
<stop offset="1" stop-color="white" stop-opacity="0"/>
</linearGradient>
<clipPath id="clip0_2_1779">
<rect width="414" height="260" fill="white"/>
</clipPath>
</defs>
</svg>
